<?xml version="1.0" encoding="UTF-8" standalone="no"?>
<!-- Generator: Gravit.io -->
<svg xmlns="http://www.w3.org/2000/svg" xmlns:xlink="http://www.w3.org/1999/xlink" style="isolation:isolate" viewBox="0 0 168 167" width="168pt" height="167pt"><g><mask id="_mask_VSquvlZZHyBXJUp9qDR2JvZ0ufcarYDC" x="-200%" y="-200%" width="400%" height="400%"><rect x="-200%" y="-200%" width="400%" height="400%" style="fill:white;"/><path d=" M 7.478 47.12 C 7.478 33.069 7.478 26.043 10.213 20.676 C 12.618 15.956 16.456 12.117 21.177 9.712 C 26.544 6.977 33.57 6.977 47.621 6.977 L 120.38 6.977 C 134.431 6.977 141.456 6.977 146.824 9.712 C 151.545 12.117 155.382 15.956 157.788 20.676 C 160.523 26.043 160.523 33.069 160.523 47.12 L 160.523 119.879 C 160.523 133.931 160.523 140.957 157.788 146.323 C 155.382 151.044 151.545 154.883 146.824 157.288 C 141.456 160.022 134.431 160.022 120.38 160.022 L 47.621 160.022 C 33.57 160.022 26.544 160.022 21.177 157.288 C 16.456 154.883 12.618 151.044 10.213 146.323 C 7.478 140.957 7.478 133.931 7.478 119.879 L 7.478 47.12 Z " fill="black" stroke="none"/></mask><path d=" M 7.478 47.12 C 7.478 33.069 7.478 26.043 10.213 20.676 C 12.618 15.956 16.456 12.117 21.177 9.712 C 26.544 6.977 33.57 6.977 47.621 6.977 L 120.38 6.977 C 134.431 6.977 141.456 6.977 146.824 9.712 C 151.545 12.117 155.382 15.956 157.788 20.676 C 160.523 26.043 160.523 33.069 160.523 47.12 L 160.523 119.879 C 160.523 133.931 160.523 140.957 157.788 146.323 C 155.382 151.044 151.545 154.883 146.824 157.288 C 141.456 160.022 134.431 160.022 120.38 160.022 L 47.621 160.022 C 33.57 160.022 26.544 160.022 21.177 157.288 C 16.456 154.883 12.618 151.044 10.213 146.323 C 7.478 140.957 7.478 133.931 7.478 119.879 L 7.478 47.12 Z " fill="rgb(0,0,0)"/><path d=" M 7.478 47.12 C 7.478 33.069 7.478 26.043 10.213 20.676 C 12.618 15.956 16.456 12.117 21.177 9.712 C 26.544 6.977 33.57 6.977 47.621 6.977 L 120.38 6.977 C 134.431 6.977 141.456 6.977 146.824 9.712 C 151.545 12.117 155.382 15.956 157.788 20.676 C 160.523 26.043 160.523 33.069 160.523 47.12 L 160.523 119.879 C 160.523 133.931 160.523 140.957 157.788 146.323 C 155.382 151.044 151.545 154.883 146.824 157.288 C 141.456 160.022 134.431 160.022 120.38 160.022 L 47.621 160.022 C 33.57 160.022 26.544 160.022 21.177 157.288 C 16.456 154.883 12.618 151.044 10.213 146.323 C 7.478 140.957 7.478 133.931 7.478 119.879 L 7.478 47.12 Z " fill="rgb(0,0,0)" mask="url(#_mask_VSquvlZZHyBXJUp9qDR2JvZ0ufcarYDC)" vector-effect="non-scaling-stroke" stroke-width="14" stroke="rgb(255,255,255)" stroke-linejoin="round" stroke-linecap="round" stroke-miterlimit="4"/><clipPath id="_clipPath_wcl6wmrSAHH2oqro0BDBnHgxlpeIjy56"><path d=" M 7.478 47.12 C 7.478 33.069 7.478 26.043 10.213 20.676 C 12.618 15.956 16.456 12.117 21.177 9.712 C 26.544 6.977 33.57 6.977 47.621 6.977 L 120.38 6.977 C 134.431 6.977 141.456 6.977 146.824 9.712 C 151.545 12.117 155.382 15.956 157.788 20.676 C 160.523 26.043 160.523 33.069 160.523 47.12 L 160.523 119.879 C 160.523 133.931 160.523 140.957 157.788 146.323 C 155.382 151.044 151.545 154.883 146.824 157.288 C 141.456 160.022 134.431 160.022 120.38 160.022 L 47.621 160.022 C 33.57 160.022 26.544 160.022 21.177 157.288 C 16.456 154.883 12.618 151.044 10.213 146.323 C 7.478 140.957 7.478 133.931 7.478 119.879 L 7.478 47.12 Z " fill="rgb(0,0,0)"/><path d=" M 7.478 47.12 C 7.478 33.069 7.478 26.043 10.213 20.676 C 12.618 15.956 16.456 12.117 21.177 9.712 C 26.544 6.977 33.57 6.977 47.621 6.977 L 120.38 6.977 C 134.431 6.977 141.456 6.977 146.824 9.712 C 151.545 12.117 155.382 15.956 157.788 20.676 C 160.523 26.043 160.523 33.069 160.523 47.12 L 160.523 119.879 C 160.523 133.931 160.523 140.957 157.788 146.323 C 155.382 151.044 151.545 154.883 146.824 157.288 C 141.456 160.022 134.431 160.022 120.38 160.022 L 47.621 160.022 C 33.57 160.022 26.544 160.022 21.177 157.288 C 16.456 154.883 12.618 151.044 10.213 146.323 C 7.478 140.957 7.478 133.931 7.478 119.879 L 7.478 47.12 Z " fill="rgb(0,0,0)" mask="url(#_mask_VSquvlZZHyBXJUp9qDR2JvZ0ufcarYDC)" vector-effect="non-scaling-stroke" stroke-width="14" stroke="rgb(255,255,255)" stroke-linejoin="round" stroke-linecap="round" stroke-miterlimit="4"/></clipPath><g clip-path="url(#_clipPath_wcl6wmrSAHH2oqro0BDBnHgxlpeIjy56)"><g><path d=" M 94.304 84.13 C 94.304 85.374 94.207 86.594 94.02 87.781 C 90.846 86.843 87.486 86.335 84.004 86.335 C 80.522 86.335 77.154 86.843 73.979 87.781 C 73.794 86.594 73.696 85.374 73.696 84.13 C 73.696 76.044 77.784 68.919 84.003 64.703 C 90.216 68.928 94.304 76.052 94.304 84.13 Z  M 141.687 90.366 C 137.762 103.064 129.757 113.969 119.199 121.554 C 115.346 124.325 111.154 126.651 106.695 128.46 C 108.77 125.746 110.652 122.87 112.309 119.85 C 114.159 116.482 115.734 112.927 116.995 109.235 C 119.353 102.345 120.63 94.954 120.63 87.272 C 120.63 86.626 120.622 85.98 120.598 85.334 C 120.598 85.334 120.605 85.326 120.598 85.318 C 120.549 83.436 120.42 81.562 120.21 79.72 C 119.87 76.651 119.329 73.645 118.594 70.714 C 118.99 68.597 119.2 66.417 119.2 64.179 C 119.2 57.612 117.399 51.465 114.264 46.198 C 119.102 48.217 123.449 51.174 127.084 54.833 C 130.129 57.903 132.674 61.465 134.58 65.399 C 138.707 72.862 141.235 81.343 141.687 90.366 Z  M 144.377 72.498 C 144.377 78.718 143.441 84.72 141.687 90.366 C 141.235 81.343 138.707 72.862 134.579 65.398 C 132.673 61.464 130.128 57.902 127.083 54.832 C 123.448 51.173 119.102 48.217 114.264 46.197 C 111.235 44.928 108.011 44.032 104.651 43.555 C 102.818 43.297 100.951 43.159 99.045 43.159 C 93.721 43.159 88.641 44.209 84.005 46.124 C 79.368 44.217 74.287 43.159 68.955 43.159 C 67.049 43.159 65.183 43.297 63.35 43.555 C 59.989 44.031 56.766 44.928 53.737 46.197 C 48.866 48.233 44.488 51.221 40.845 54.921 C 37.848 57.958 35.344 61.472 33.454 65.349 C 29.302 72.837 26.765 81.343 26.322 90.39 C 24.568 84.736 23.623 78.726 23.623 72.498 C 23.623 49.646 36.322 29.758 55.045 19.5 C 65.466 19.831 75.288 22.52 84.004 27.044 C 92.72 22.513 102.55 19.831 112.962 19.5 C 131.679 29.759 144.377 49.647 144.377 72.498 Z  M 120.629 87.272 C 120.629 94.954 119.352 102.346 116.994 109.235 C 115.733 112.927 114.159 116.481 112.309 119.85 C 110.652 122.87 108.77 125.746 106.694 128.46 C 100.644 136.36 92.905 142.887 84.004 147.5 C 75.102 142.895 67.348 136.361 61.305 128.452 C 59.222 125.738 57.348 122.862 55.691 119.85 C 53.841 116.482 52.266 112.927 51.006 109.235 C 48.647 102.345 47.371 94.954 47.371 87.272 C 47.371 86.626 47.378 85.98 47.404 85.334 C 47.404 85.334 47.396 85.326 47.404 85.318 C 47.452 83.436 47.581 81.562 47.792 79.72 C 48.131 76.651 48.672 73.645 49.407 70.714 C 49.576 71.603 49.77 72.475 50.004 73.331 C 51.765 79.906 55.392 85.723 60.271 90.173 C 60.554 91.668 60.933 93.13 61.386 94.56 C 62.88 99.309 65.255 103.671 68.316 107.452 C 72.451 112.565 77.831 116.628 84.003 119.173 C 90.167 116.628 95.555 112.565 99.681 107.452 C 102.743 103.671 105.118 99.309 106.612 94.56 C 107.065 93.13 107.444 91.668 107.726 90.173 C 112.605 85.723 116.233 79.906 117.994 73.331 C 118.227 72.475 118.422 71.603 118.591 70.714 C 119.326 73.646 119.868 76.651 120.207 79.72 C 120.417 81.562 120.546 83.436 120.595 85.318 C 120.602 85.326 120.595 85.334 120.595 85.334 C 120.621 85.98 120.629 86.626 120.629 87.272 Z  M 99.683 107.45 C 95.555 112.563 90.168 116.626 84.005 119.171 C 77.833 116.626 72.453 112.564 68.318 107.45 C 69.141 107.539 69.989 107.587 70.837 107.587 C 75.716 107.587 80.248 106.101 84.004 103.548 C 87.76 106.101 92.284 107.587 97.163 107.587 C 98.012 107.587 98.859 107.539 99.683 107.45 Z  M 119.199 64.178 C 119.199 66.415 118.989 68.597 118.593 70.713 C 118.423 71.601 118.23 72.473 117.996 73.33 C 116.235 79.905 112.607 85.721 107.729 90.172 C 107.446 91.666 107.067 93.128 106.614 94.558 C 105.12 99.308 102.745 103.67 99.683 107.45 C 98.86 107.539 98.012 107.587 97.164 107.587 C 92.285 107.587 87.761 106.101 84.005 103.548 C 85.871 102.289 87.535 100.762 88.973 99.025 C 91.566 95.867 93.359 92.014 94.022 87.781 C 94.208 86.594 94.305 85.374 94.305 84.13 C 94.305 76.052 90.217 68.927 84.006 64.703 C 77.786 68.92 73.699 76.044 73.699 84.13 C 73.699 85.374 73.796 86.594 73.982 87.781 C 74.644 92.013 76.438 95.867 79.031 99.025 C 80.469 100.762 82.141 102.289 84.007 103.548 C 80.251 106.101 75.719 107.587 70.84 107.587 C 69.992 107.587 69.144 107.539 68.321 107.45 C 65.259 103.67 62.884 99.308 61.39 94.558 C 60.937 93.128 60.557 91.666 60.275 90.172 C 55.396 85.721 51.769 79.905 50.008 73.33 C 49.774 72.473 49.58 71.601 49.411 70.713 C 49.015 68.596 48.805 66.415 48.805 64.178 C 48.805 57.611 50.606 51.464 53.74 46.197 C 56.769 44.928 59.993 44.032 63.353 43.555 C 65.186 43.297 67.053 43.159 68.959 43.159 C 74.29 43.159 79.371 44.217 84.008 46.124 C 88.644 44.209 93.725 43.159 99.048 43.159 C 100.954 43.159 102.821 43.297 104.654 43.555 C 108.015 44.031 111.238 44.928 114.267 46.197 C 117.398 51.464 119.199 57.611 119.199 64.178 Z  M 61.306 128.452 C 56.848 126.651 52.655 124.325 48.802 121.553 C 38.252 113.976 30.248 103.08 26.322 90.39 C 26.766 81.343 29.303 72.837 33.454 65.349 C 35.344 61.471 37.848 57.958 40.845 54.921 C 44.488 51.221 48.866 48.233 53.737 46.197 C 50.603 51.464 48.801 57.61 48.801 64.178 C 48.801 66.415 49.011 68.597 49.407 70.713 C 48.673 73.645 48.131 76.65 47.792 79.719 C 47.582 81.56 47.453 83.435 47.404 85.316 C 47.397 85.324 47.404 85.332 47.404 85.332 C 47.38 85.979 47.372 86.625 47.372 87.271 C 47.372 94.952 48.648 102.344 51.007 109.234 C 52.267 112.925 53.841 116.479 55.692 119.848 C 57.349 122.863 59.222 125.739 61.306 128.452 Z  M 94.021 87.781 C 93.359 92.013 91.565 95.867 88.972 99.025 C 87.534 100.762 85.871 102.289 84.005 103.548 C 82.138 102.289 80.466 100.762 79.029 99.025 C 76.436 95.867 74.643 92.014 73.98 87.781 C 77.155 86.843 80.523 86.335 84.005 86.335 C 87.486 86.335 90.846 86.844 94.021 87.781 Z  M 60.788 60.051 C 60.788 57.292 63.028 55.051 65.788 55.051 C 68.548 55.051 70.788 57.292 70.788 60.051 C 70.788 62.811 68.548 65.051 65.788 65.051 C 63.028 65.051 60.788 62.811 60.788 60.051 Z  M 97.212 60.051 C 97.212 57.292 99.453 55.051 102.212 55.051 C 104.972 55.051 107.212 57.292 107.212 60.051 C 107.212 62.811 104.972 65.051 102.212 65.051 C 99.453 65.051 97.212 62.811 97.212 60.051 Z " fill-rule="evenodd" fill="rgb(128,128,128)" fill-opacity="0.5"/><path d=" M 93.66 84.09 C 93.66 85.256 93.569 86.4 93.394 87.513 C 90.418 86.634 87.268 86.158 84.004 86.158 C 80.74 86.158 77.582 86.634 74.606 87.513 C 74.431 86.4 74.34 85.256 74.34 84.09 C 74.34 76.51 78.172 69.83 84.003 65.878 C 89.828 69.839 93.66 76.517 93.66 84.09 Z " fill="rgb(163,70,0)"/><path d=" M 138.082 89.937 C 134.402 101.841 126.897 112.064 116.999 119.176 C 113.387 121.773 109.457 123.954 105.277 125.65 C 107.222 123.106 108.987 120.41 110.54 117.578 C 112.274 114.42 113.751 111.087 114.932 107.627 C 117.143 101.167 118.34 94.238 118.34 87.036 C 118.34 86.43 118.333 85.825 118.31 85.219 C 118.31 85.219 118.317 85.211 118.31 85.204 C 118.265 83.44 118.144 81.683 117.947 79.956 C 117.629 77.079 117.121 74.261 116.432 71.513 C 116.803 69.529 117 67.484 117 65.387 C 117 59.23 115.311 53.467 112.373 48.53 C 116.908 50.422 120.983 53.194 124.391 56.625 C 127.246 59.503 129.632 62.842 131.418 66.53 C 135.288 73.527 137.658 81.478 138.082 89.937 Z " fill="rgb(142,81,62)"/><path d=" M 140.604 73.186 C 140.604 79.017 139.726 84.643 138.082 89.937 C 137.658 81.478 135.288 73.527 131.418 66.529 C 129.631 62.841 127.245 59.502 124.391 56.624 C 120.983 53.194 116.908 50.422 112.372 48.528 C 109.533 47.339 106.511 46.499 103.36 46.052 C 101.642 45.809 99.892 45.681 98.104 45.681 C 93.114 45.681 88.351 46.665 84.004 48.46 C 79.658 46.673 74.894 45.681 69.895 45.681 C 68.109 45.681 66.359 45.809 64.64 46.052 C 61.49 46.498 58.468 47.339 55.628 48.528 C 51.062 50.437 46.958 53.239 43.542 56.707 C 40.732 59.555 38.385 62.849 36.613 66.483 C 32.72 73.503 30.342 81.478 29.926 89.959 C 28.283 84.658 27.397 79.024 27.397 73.185 C 27.397 51.762 39.302 33.117 56.855 23.5 C 66.625 23.81 75.833 26.332 84.004 30.573 C 92.175 26.324 101.391 23.81 111.152 23.5 C 128.699 33.118 140.604 51.762 140.604 73.186 Z " fill="rgb(221,122,55)"/><path d=" M 118.34 87.036 C 118.34 94.238 117.143 101.168 114.932 107.627 C 113.75 111.087 112.274 114.42 110.539 117.578 C 108.987 120.41 107.222 123.106 105.276 125.65 C 99.604 133.056 92.349 139.175 84.004 143.5 C 75.658 139.183 68.388 133.057 62.724 125.643 C 60.77 123.098 59.014 120.402 57.46 117.578 C 55.726 114.42 54.25 111.087 53.068 107.627 C 50.857 101.167 49.66 94.238 49.66 87.036 C 49.66 86.43 49.667 85.825 49.691 85.219 C 49.691 85.219 49.684 85.211 49.691 85.204 C 49.737 83.44 49.857 81.683 50.055 79.956 C 50.373 77.079 50.88 74.261 51.569 71.513 C 51.727 72.346 51.909 73.164 52.128 73.967 C 53.78 80.131 57.18 85.584 61.754 89.756 C 62.019 91.157 62.375 92.528 62.799 93.868 C 64.2 98.321 66.426 102.41 69.297 105.955 C 73.173 110.748 78.217 114.557 84.003 116.943 C 89.781 114.557 94.832 110.749 98.701 105.955 C 101.572 102.41 103.798 98.321 105.199 93.868 C 105.623 92.528 105.979 91.157 106.244 89.756 C 110.818 85.584 114.218 80.131 115.869 73.967 C 116.088 73.164 116.27 72.346 116.429 71.513 C 117.119 74.262 117.626 77.079 117.944 79.956 C 118.141 81.683 118.262 83.44 118.308 85.204 C 118.315 85.211 118.308 85.219 118.308 85.219 C 118.332 85.825 118.34 86.43 118.34 87.036 Z " fill="rgb(221,122,55)"/><path d=" M 98.703 105.953 C 94.833 110.747 89.782 114.556 84.004 116.942 C 78.219 114.556 73.175 110.747 69.298 105.953 C 70.07 106.036 70.865 106.082 71.66 106.082 C 76.234 106.082 80.482 104.689 84.004 102.295 C 87.525 104.689 91.766 106.082 96.34 106.082 C 97.136 106.082 97.931 106.036 98.703 105.953 Z " fill="rgb(163,70,0)"/><path d=" M 116.999 65.386 C 116.999 67.483 116.803 69.528 116.431 71.512 C 116.272 72.345 116.09 73.162 115.871 73.966 C 114.22 80.129 110.819 85.582 106.246 89.755 C 105.98 91.156 105.625 92.527 105.201 93.867 C 103.8 98.32 101.574 102.409 98.703 105.953 C 97.931 106.036 97.136 106.082 96.341 106.082 C 91.767 106.082 87.526 104.689 84.005 102.295 C 85.754 101.114 87.314 99.683 88.662 98.054 C 91.093 95.094 92.774 91.482 93.395 87.513 C 93.57 86.4 93.661 85.256 93.661 84.09 C 93.661 76.517 89.829 69.838 84.006 65.878 C 78.175 69.831 74.343 76.51 74.343 84.09 C 74.343 85.256 74.433 86.4 74.608 87.513 C 75.229 91.481 76.911 95.094 79.342 98.054 C 80.689 99.683 82.257 101.114 84.006 102.295 C 80.485 104.689 76.236 106.082 71.662 106.082 C 70.868 106.082 70.072 106.036 69.301 105.953 C 66.43 102.409 64.204 98.32 62.803 93.867 C 62.378 92.527 62.023 91.156 61.758 89.755 C 57.184 85.582 53.784 80.129 52.132 73.966 C 51.913 73.162 51.731 72.345 51.573 71.512 C 51.202 69.527 51.005 67.483 51.005 65.386 C 51.005 59.229 52.693 53.466 55.631 48.528 C 58.471 47.339 61.493 46.499 64.644 46.052 C 66.362 45.809 68.112 45.681 69.899 45.681 C 74.897 45.681 79.66 46.673 84.008 48.46 C 88.354 46.665 93.117 45.681 98.108 45.681 C 99.895 45.681 101.645 45.809 103.363 46.052 C 106.514 46.498 109.536 47.339 112.375 48.528 C 115.311 53.466 116.999 59.229 116.999 65.386 Z " fill="rgb(253,187,93)"/><path d=" M 62.725 125.643 C 58.545 123.954 54.614 121.773 51.002 119.175 C 41.112 112.071 33.607 101.856 29.926 89.959 C 30.343 81.478 32.721 73.503 36.613 66.483 C 38.385 62.848 40.732 59.554 43.542 56.707 C 46.958 53.239 51.062 50.437 55.628 48.528 C 52.69 53.466 51.001 59.228 51.001 65.386 C 51.001 67.483 51.198 69.528 51.569 71.512 C 50.881 74.261 50.373 77.078 50.055 79.955 C 49.858 81.682 49.737 83.439 49.692 85.203 C 49.684 85.21 49.692 85.218 49.692 85.218 C 49.669 85.824 49.661 86.43 49.661 87.035 C 49.661 94.237 50.858 101.166 53.069 107.626 C 54.25 111.086 55.726 114.418 57.461 117.577 C 59.014 120.403 60.771 123.099 62.725 125.643 Z " fill="rgb(142,81,62)"/><path d=" M 93.395 87.513 C 92.774 91.481 91.092 95.094 88.661 98.054 C 87.313 99.683 85.754 101.114 84.004 102.295 C 82.255 101.114 80.687 99.683 79.34 98.054 C 76.909 95.094 75.227 91.482 74.606 87.513 C 77.583 86.634 80.74 86.158 84.004 86.158 C 87.268 86.158 90.418 86.635 93.395 87.513 Z " fill="rgb(9,42,72)"/><g><circle vector-effect="non-scaling-stroke" cx="66.92625769951377" cy="61.51662969328902" r="4.6875" fill="rgb(9,42,72)"/><clipPath id="_clipPath_73RIrinbRhEgtRoXQjD4tYdJgb0ZcyTq"><circle vector-effect="non-scaling-stroke" cx="66.92625769951377" cy="61.51662969328902" r="4.6875" fill="rgb(9,42,72)"/></clipPath><g clip-path="url(#_clipPath_73RIrinbRhEgtRoXQjD4tYdJgb0ZcyTq)"><circle vector-effect="non-scaling-stroke" cx="68.17990657058786" cy="60.41375369096821" r="1.5234375" fill="rgb(235,235,235)"/></g><circle vector-effect="non-scaling-stroke" cx="101.07418044166195" cy="61.51662969328902" r="4.6875" fill="rgb(9,42,72)"/><clipPath id="_clipPath_YUhW6N5eyonLnm6nEbhLefkkEdK8mGIE"><circle vector-effect="non-scaling-stroke" cx="101.07418044166195" cy="61.51662969328902" r="4.6875" fill="rgb(9,42,72)"/></clipPath><g clip-path="url(#_clipPath_YUhW6N5eyonLnm6nEbhLefkkEdK8mGIE)"><circle vector-effect="non-scaling-stroke" cx="102.63303157058789" cy="60.41375369096821" r="1.5234375" fill="rgb(235,235,235)"/></g></g></g></g><path d=" M 7.478 47.12 C 7.478 33.069 7.478 26.043 10.213 20.676 C 12.618 15.956 16.456 12.117 21.177 9.712 C 26.544 6.977 33.57 6.977 47.621 6.977 L 120.38 6.977 C 134.431 6.977 141.456 6.977 146.824 9.712 C 151.545 12.117 155.382 15.956 157.788 20.676 C 160.523 26.043 160.523 33.069 160.523 47.12 L 160.523 119.879 C 160.523 133.931 160.523 140.957 157.788 146.323 C 155.382 151.044 151.545 154.883 146.824 157.288 C 141.456 160.022 134.431 160.022 120.38 160.022 L 47.621 160.022 C 33.57 160.022 26.544 160.022 21.177 157.288 C 16.456 154.883 12.618 151.044 10.213 146.323 C 7.478 140.957 7.478 133.931 7.478 119.879 L 7.478 47.12 Z " fill="transparent" mask="url(#_mask_VSquvlZZHyBXJUp9qDR2JvZ0ufcarYDC)" vector-effect="non-scaling-stroke" stroke-width="14" stroke="rgb(255,255,255)" stroke-linejoin="round" stroke-linecap="round" stroke-miterlimit="4"/><path d=" M 7.478 47.12 C 7.478 33.069 7.478 26.043 10.213 20.676 C 12.618 15.956 16.456 12.117 21.177 9.712 C 26.544 6.977 33.57 6.977 47.621 6.977 L 120.38 6.977 C 134.431 6.977 141.456 6.977 146.824 9.712 C 151.545 12.117 155.382 15.956 157.788 20.676 C 160.523 26.043 160.523 33.069 160.523 47.12 L 160.523 119.879 C 160.523 133.931 160.523 140.957 157.788 146.323 C 155.382 151.044 151.545 154.883 146.824 157.288 C 141.456 160.022 134.431 160.022 120.38 160.022 L 47.621 160.022 C 33.57 160.022 26.544 160.022 21.177 157.288 C 16.456 154.883 12.618 151.044 10.213 146.323 C 7.478 140.957 7.478 133.931 7.478 119.879 L 7.478 47.12 Z  M 0.498 47.128 C 0.488 43.997 0.508 40.867 0.538 37.727 C 0.568 35.205 0.668 32.662 0.857 30.14 C 1.017 27.927 1.336 25.724 1.824 23.561 C 2.303 21.467 3.02 19.443 3.987 17.529 C 7.058 11.478 11.983 6.563 18.034 3.483 C 19.948 2.526 21.972 1.798 24.065 1.32 C 26.228 0.841 28.422 0.512 30.635 0.362 C 33.167 0.173 35.699 0.063 38.241 0.043 C 41.372 0.004 44.502 -0.006 47.632 0.004 L 120.367 0.004 C 123.497 -0.006 126.627 0.004 129.758 0.043 C 132.3 0.063 134.832 0.173 137.364 0.362 C 139.577 0.512 141.771 0.841 143.934 1.32 C 146.027 1.798 148.051 2.526 149.965 3.483 C 156.016 6.563 160.941 11.478 164.022 17.529 C 164.979 19.443 165.706 21.467 166.175 23.561 C 166.663 25.724 166.982 27.927 167.142 30.14 C 167.331 32.662 167.431 35.205 167.461 37.737 C 167.501 40.867 167.511 43.997 167.501 47.128 L 167.501 119.872 C 167.511 123.003 167.501 126.133 167.461 129.263 C 167.431 131.795 167.331 134.338 167.142 136.86 C 166.982 139.073 166.663 141.276 166.175 143.439 C 165.706 145.523 164.979 147.557 164.022 149.471 C 160.941 155.522 156.016 160.437 149.965 163.517 C 148.051 164.474 146.027 165.202 143.934 165.68 C 141.771 166.159 139.577 166.488 137.364 166.638 C 134.832 166.827 132.3 166.937 129.758 166.957 C 126.627 166.996 123.497 167.006 120.367 166.996 L 47.632 166.996 C 44.502 167.006 41.372 166.996 38.241 166.957 C 35.699 166.937 33.167 166.827 30.635 166.638 C 28.422 166.488 26.228 166.159 24.065 165.68 C 21.972 165.202 19.948 164.474 18.034 163.517 C 11.983 160.437 7.058 155.522 3.987 149.471 C 3.02 147.557 2.303 145.523 1.824 143.439 C 1.336 141.276 1.017 139.073 0.857 136.86 C 0.668 134.338 0.568 131.795 0.538 129.263 C 0.508 126.133 0.488 123.003 0.498 119.872 L 0.498 47.128 Z " fill-rule="evenodd" fill="rgb(163,70,0)"/></g></svg>