<?xml version="1.0" encoding="UTF-8" standalone="no"?>
<!-- Generator: Gravit.io -->
<svg xmlns="http://www.w3.org/2000/svg" xmlns:xlink="http://www.w3.org/1999/xlink" style="isolation:isolate" viewBox="0 0 512 512" width="512pt" height="512pt"><g><path d=" M 297.214 258.52 C 297.214 263.496 296.827 268.377 296.08 273.124 C 283.382 269.374 269.942 267.34 256.015 267.34 C 242.088 267.34 228.615 269.374 215.917 273.124 C 215.173 268.377 214.783 263.496 214.783 258.52 C 214.783 226.178 231.134 197.677 256.013 180.814 C 280.863 197.714 297.214 226.208 297.214 258.52 Z  M 486.748 283.465 C 471.046 334.256 439.027 377.876 396.795 408.218 C 381.383 419.3 364.615 428.605 346.779 435.843 C 355.081 424.986 362.609 413.483 369.237 401.4 C 376.636 387.927 382.935 373.708 387.978 358.942 C 397.411 331.381 402.518 301.816 402.518 271.09 C 402.518 268.505 402.487 265.919 402.389 263.337 C 402.389 263.337 402.42 263.303 402.389 263.273 C 402.194 255.745 401.679 248.248 400.838 240.882 C 399.481 228.604 397.316 216.583 394.374 204.857 C 395.959 196.39 396.798 187.667 396.798 178.719 C 396.798 152.45 389.593 127.861 377.057 106.794 C 396.408 114.87 413.795 126.697 428.335 141.334 C 440.515 153.615 450.695 167.862 458.317 183.597 C 474.827 213.449 484.94 247.373 486.748 283.465 Z  M 497.507 211.994 C 497.507 236.873 493.763 260.88 486.748 283.465 C 484.94 247.373 474.827 213.449 458.315 183.592 C 450.692 167.857 440.512 153.609 428.332 141.329 C 413.792 126.694 396.408 114.868 377.054 106.788 C 364.938 101.715 352.044 98.13 338.602 96.221 C 331.27 95.188 323.803 94.639 316.178 94.639 C 294.885 94.639 274.561 98.837 256.018 106.496 C 237.472 98.871 217.148 94.639 195.819 94.639 C 188.197 94.639 180.73 95.188 173.398 96.221 C 159.956 98.127 147.062 101.715 134.946 106.788 C 115.464 114.932 97.951 126.886 83.378 141.685 C 71.39 153.835 61.375 167.89 53.814 183.397 C 37.206 213.348 27.06 247.373 25.285 283.56 C 18.273 260.944 14.493 236.904 14.493 211.992 C 14.493 120.584 65.286 41.034 140.181 0 C 181.864 1.323 221.152 12.083 256.015 30.177 C 290.879 12.052 330.2 1.323 371.847 0 C 446.717 41.037 497.507 120.587 497.507 211.994 Z  M 402.515 271.09 C 402.515 301.816 397.408 331.384 387.975 358.942 C 382.932 373.708 376.636 387.925 369.234 401.4 C 362.609 413.483 355.078 424.986 346.776 435.843 C 322.575 467.441 291.62 493.549 256.015 512 C 220.408 493.582 189.389 467.444 165.221 435.81 C 156.886 424.953 149.391 413.45 142.764 401.4 C 135.364 387.927 129.065 373.708 124.022 358.942 C 114.589 331.381 109.482 301.816 109.482 271.09 C 109.482 268.505 109.513 265.919 109.613 263.337 C 109.613 263.337 109.583 263.303 109.613 263.273 C 109.808 255.745 110.324 248.248 111.165 240.882 C 112.522 228.604 114.687 216.583 117.626 204.857 C 118.303 208.412 119.077 211.9 120.013 215.326 C 127.059 241.626 141.568 264.891 161.081 282.694 C 162.215 288.672 163.731 294.52 165.541 300.24 C 171.517 319.237 181.017 336.685 193.264 351.808 C 209.805 372.259 231.323 388.513 256.013 398.692 C 280.665 388.513 302.218 372.262 318.724 351.808 C 330.971 336.685 340.472 319.237 346.447 300.24 C 348.258 294.52 349.777 288.672 350.905 282.694 C 370.421 264.891 384.93 241.626 391.976 215.326 C 392.909 211.9 393.686 208.412 394.363 204.857 C 397.305 216.586 399.47 228.607 400.826 240.882 C 401.668 248.248 402.183 255.745 402.378 263.273 C 402.409 263.303 402.378 263.337 402.378 263.337 C 402.484 265.919 402.515 268.505 402.515 271.09 Z  M 318.73 351.802 C 302.22 372.254 280.671 388.507 256.018 398.687 C 231.332 388.507 209.81 372.256 193.27 351.802 C 196.563 352.156 199.956 352.351 203.347 352.351 C 222.862 352.351 240.991 346.406 256.015 336.195 C 271.037 346.406 289.135 352.351 308.65 352.351 C 312.046 352.351 315.437 352.156 318.73 351.802 Z  M 396.795 178.713 C 396.795 187.662 395.957 196.388 394.371 204.851 C 393.692 208.406 392.917 211.894 391.984 215.321 C 384.938 241.62 370.429 264.886 350.913 282.688 C 349.782 288.667 348.267 294.514 346.456 300.234 C 340.48 319.231 330.98 336.68 318.733 351.802 C 315.44 352.156 312.046 352.351 308.656 352.351 C 289.14 352.351 271.043 346.406 256.021 336.195 C 263.484 331.155 270.137 325.048 275.89 318.1 C 286.262 305.469 293.436 290.057 296.086 273.124 C 296.83 268.377 297.22 263.496 297.22 258.52 C 297.22 226.208 280.869 197.711 256.024 180.814 C 231.145 197.68 214.794 226.178 214.794 258.52 C 214.794 263.496 215.182 268.377 215.928 273.124 C 218.575 290.054 225.752 305.469 236.124 318.1 C 241.874 325.048 248.563 331.155 256.026 336.195 C 241.002 346.406 222.874 352.351 203.358 352.351 C 199.967 352.351 196.574 352.156 193.281 351.802 C 181.034 336.68 171.534 319.231 165.558 300.234 C 163.747 294.514 162.229 288.667 161.098 282.688 C 141.585 264.886 127.076 241.62 120.03 215.321 C 119.094 211.894 118.32 208.406 117.643 204.851 C 116.06 196.385 115.219 187.662 115.219 178.713 C 115.219 152.445 122.423 127.856 134.96 106.788 C 147.076 101.715 159.97 98.13 173.412 96.221 C 180.744 95.188 188.211 94.639 195.833 94.639 C 217.16 94.639 237.483 98.871 256.032 106.496 C 274.575 98.837 294.899 94.639 316.192 94.639 C 323.817 94.639 331.283 95.188 338.616 96.221 C 352.058 98.127 364.952 101.715 377.068 106.788 C 389.591 127.856 396.795 152.445 396.795 178.713 Z  M 165.224 435.81 C 147.391 428.605 130.62 419.3 115.208 408.215 C 73.009 377.906 40.99 334.32 25.285 283.56 C 27.063 247.373 37.209 213.348 53.814 183.397 C 61.375 167.887 71.39 153.832 83.378 141.685 C 97.951 126.886 115.464 114.932 134.946 106.788 C 122.409 127.856 115.205 152.442 115.205 178.713 C 115.205 187.662 116.043 196.388 117.629 204.851 C 114.689 216.58 112.525 228.602 111.168 240.876 C 110.327 248.242 109.811 255.739 109.616 263.267 C 109.586 263.298 109.616 263.331 109.616 263.331 C 109.519 265.917 109.485 268.502 109.485 271.085 C 109.485 301.811 114.592 331.378 124.025 358.937 C 129.068 373.702 135.364 387.919 142.766 401.395 C 149.394 413.452 156.888 424.956 165.224 435.81 Z  M 296.083 273.124 C 293.436 290.054 286.26 305.469 275.888 318.1 C 270.135 325.048 263.482 331.155 256.018 336.195 C 248.552 331.155 241.863 325.048 236.115 318.1 C 225.743 305.469 218.569 290.057 215.92 273.124 C 228.618 269.374 242.091 267.34 256.018 267.34 C 269.942 267.34 283.385 269.377 296.083 273.124 Z  M 163.151 162.206 C 163.151 151.167 172.113 142.206 183.151 142.206 C 194.189 142.206 203.151 151.167 203.151 162.206 C 203.151 173.244 194.189 182.206 183.151 182.206 C 172.113 182.206 163.151 173.244 163.151 162.206 Z  M 308.849 162.206 C 308.849 151.167 317.811 142.206 328.849 142.206 C 339.887 142.206 348.849 151.167 348.849 162.206 C 348.849 173.244 339.887 182.206 328.849 182.206 C 317.811 182.206 308.849 173.244 308.849 162.206 Z " fill-rule="evenodd" fill="rgb(128,128,128)" fill-opacity="0.5"/><path d=" M 294.638 258.362 C 294.638 263.027 294.275 267.603 293.575 272.054 C 281.67 268.538 269.071 266.631 256.014 266.631 C 242.958 266.631 230.327 268.538 218.422 272.054 C 217.725 267.603 217.359 263.027 217.359 258.362 C 217.359 228.042 232.688 201.323 256.012 185.513 C 279.309 201.357 294.638 228.07 294.638 258.362 Z " fill="rgb(163,70,0)"/><path d=" M 472.326 281.749 C 457.606 329.365 427.588 370.258 387.996 398.704 C 373.547 409.094 357.826 417.817 341.105 424.603 C 348.889 414.425 355.946 403.64 362.159 392.313 C 369.096 379.682 375.002 366.351 379.729 352.509 C 388.573 326.67 393.36 298.953 393.36 270.147 C 393.36 267.723 393.331 265.299 393.24 262.878 C 393.24 262.878 393.269 262.847 393.24 262.818 C 393.057 255.761 392.574 248.733 391.785 241.827 C 390.513 230.317 388.484 219.046 385.726 208.053 C 387.212 200.116 387.998 191.938 387.998 183.549 C 387.998 158.922 381.244 135.87 369.491 116.119 C 387.632 123.691 403.933 134.778 417.564 148.501 C 428.983 160.014 438.527 173.371 445.673 188.122 C 461.15 216.108 470.631 247.912 472.326 281.749 Z " fill="rgb(142,81,62)"/><path d=" M 482.413 214.745 C 482.413 238.068 478.903 260.575 472.326 281.749 C 470.631 247.912 461.15 216.108 445.67 188.117 C 438.524 173.366 428.98 160.009 417.561 148.496 C 403.93 134.776 387.632 123.688 369.488 116.114 C 358.129 111.358 346.042 107.997 333.44 106.207 C 326.565 105.238 319.565 104.724 312.417 104.724 C 292.455 104.724 273.401 108.66 256.017 115.84 C 238.63 108.691 219.577 104.724 199.58 104.724 C 192.435 104.724 185.435 105.238 178.56 106.207 C 165.958 107.994 153.871 111.358 142.512 116.114 C 124.247 123.749 107.829 134.956 94.167 148.83 C 82.928 160.22 73.539 173.397 66.45 187.934 C 50.881 216.014 41.369 247.912 39.705 281.838 C 33.131 260.635 29.587 238.097 29.587 214.742 C 29.587 129.048 77.206 54.47 147.42 16 C 186.498 17.241 223.33 27.328 256.014 44.291 C 288.699 27.299 325.562 17.241 364.607 16 C 434.797 54.472 482.413 129.051 482.413 214.745 Z " fill="rgb(221,122,55)"/><path d=" M 393.358 270.147 C 393.358 298.953 388.57 326.672 379.726 352.509 C 374.999 366.351 369.096 379.679 362.157 392.313 C 355.946 403.64 348.886 414.425 341.103 424.603 C 318.414 454.226 289.394 478.702 256.014 496 C 222.633 478.733 193.552 454.229 170.895 424.572 C 163.08 414.393 156.054 403.609 149.841 392.313 C 142.904 379.682 136.998 366.351 132.271 352.509 C 123.427 326.67 118.64 298.953 118.64 270.147 C 118.64 267.723 118.669 265.299 118.763 262.878 C 118.763 262.878 118.734 262.847 118.763 262.818 C 118.945 255.761 119.429 248.733 120.217 241.827 C 121.489 230.317 123.519 219.046 126.274 208.053 C 126.909 211.386 127.635 214.656 128.513 217.869 C 135.118 242.524 148.72 264.336 167.014 281.025 C 168.077 286.63 169.497 292.112 171.195 297.475 C 176.798 315.285 185.704 331.643 197.185 345.82 C 212.692 364.993 232.866 380.23 256.012 389.774 C 279.124 380.23 299.329 364.996 314.804 345.82 C 326.286 331.643 335.192 315.285 340.794 297.475 C 342.492 292.112 343.916 286.63 344.973 281.025 C 363.269 264.336 376.872 242.524 383.477 217.869 C 384.352 214.656 385.081 211.386 385.715 208.053 C 388.473 219.049 390.503 230.319 391.775 241.827 C 392.564 248.733 393.047 255.761 393.23 262.818 C 393.258 262.847 393.23 262.878 393.23 262.878 C 393.329 265.299 393.358 267.723 393.358 270.147 Z " fill="rgb(221,122,55)"/><path d=" M 314.809 345.814 C 299.332 364.988 279.129 380.225 256.017 389.769 C 232.874 380.225 212.697 364.99 197.191 345.814 C 200.278 346.146 203.459 346.329 206.638 346.329 C 224.934 346.329 241.929 340.755 256.014 331.183 C 270.097 340.755 287.064 346.329 305.36 346.329 C 308.544 346.329 311.722 346.146 314.809 345.814 Z " fill="rgb(163,70,0)"/><path d=" M 387.996 183.544 C 387.996 191.933 387.209 200.113 385.723 208.048 C 385.086 211.381 384.36 214.651 383.485 217.863 C 376.88 242.519 363.277 264.33 344.981 281.02 C 343.921 286.625 342.5 292.107 340.802 297.469 C 335.2 315.279 326.294 331.637 314.812 345.814 C 311.725 346.146 308.544 346.329 305.365 346.329 C 287.069 346.329 270.103 340.755 256.02 331.183 C 263.017 326.458 269.254 320.733 274.647 314.219 C 284.371 302.377 291.096 287.928 293.58 272.054 C 294.278 267.603 294.643 263.027 294.643 258.362 C 294.643 228.07 279.315 201.354 256.022 185.513 C 232.699 201.325 217.37 228.042 217.37 258.362 C 217.37 263.027 217.733 267.603 218.433 272.054 C 220.914 287.926 227.642 302.377 237.366 314.219 C 242.757 320.733 249.028 326.458 256.025 331.183 C 241.939 340.755 224.944 346.329 206.648 346.329 C 203.47 346.329 200.288 346.146 197.201 345.814 C 185.72 331.637 176.813 315.279 171.211 297.469 C 169.513 292.107 168.09 286.625 167.029 281.02 C 148.736 264.33 135.134 242.519 128.528 217.863 C 127.651 214.651 126.925 211.381 126.29 208.048 C 124.806 200.111 124.018 191.933 124.018 183.544 C 124.018 158.917 130.772 135.865 142.525 116.114 C 153.884 111.358 165.971 107.997 178.574 106.207 C 185.448 105.238 192.448 104.724 199.594 104.724 C 219.587 104.724 238.64 108.691 256.03 115.84 C 273.414 108.66 292.468 104.724 312.43 104.724 C 319.579 104.724 326.578 105.238 333.453 106.207 C 346.055 107.994 358.142 111.358 369.501 116.114 C 381.241 135.865 387.996 158.917 387.996 183.544 Z " fill="rgb(253,187,93)"/><path d=" M 170.897 424.572 C 154.179 417.817 138.456 409.094 124.007 398.701 C 84.446 370.287 54.428 329.425 39.705 281.838 C 41.371 247.912 50.884 216.014 66.45 187.934 C 73.539 173.394 82.928 160.218 94.167 148.83 C 107.829 134.956 124.247 123.749 142.512 116.114 C 130.759 135.865 124.005 158.914 124.005 183.544 C 124.005 191.933 124.791 200.113 126.277 208.048 C 123.521 219.044 121.492 230.314 120.22 241.822 C 119.431 248.727 118.948 255.756 118.765 262.813 C 118.736 262.842 118.765 262.873 118.765 262.873 C 118.674 265.297 118.642 267.721 118.642 270.142 C 118.642 298.948 123.43 326.667 132.274 352.503 C 137.001 366.346 142.904 379.674 149.843 392.308 C 156.057 403.612 163.083 414.396 170.897 424.572 Z " fill="rgb(142,81,62)"/><path d=" M 293.578 272.054 C 291.096 287.926 284.368 302.377 274.645 314.219 C 269.251 320.733 263.014 326.458 256.017 331.183 C 249.017 326.458 242.746 320.733 237.358 314.219 C 227.634 302.377 220.909 287.928 218.425 272.054 C 230.33 268.538 242.96 266.631 256.017 266.631 C 269.071 266.631 281.673 268.541 293.578 272.054 Z " fill="rgb(9,42,72)"/><g><circle vector-effect="non-scaling-stroke" cx="187.70415451570378" cy="168.06775400928328" r="18.75" fill="rgb(9,42,72)"/><clipPath id="_clipPath_SZ4NNRMQyAx8gVpeTKVe8WkI65hlxxrd"><circle vector-effect="non-scaling-stroke" cx="187.70415451570378" cy="168.06775400928328" r="18.75" fill="rgb(9,42,72)"/></clipPath><g clip-path="url(#_clipPath_SZ4NNRMQyAx8gVpeTKVe8WkI65hlxxrd)"><circle vector-effect="non-scaling-stroke" cx="192.71875000000003" cy="163.65625000000003" r="6.09375" fill="rgb(235,235,235)"/></g><circle vector-effect="non-scaling-stroke" cx="324.29584548429636" cy="168.06775400928328" r="18.75" fill="rgb(9,42,72)"/><clipPath id="_clipPath_a2PvF21PoZ4s8T9IrN8yHD0EZ7rc0JQv"><circle vector-effect="non-scaling-stroke" cx="324.29584548429636" cy="168.06775400928328" r="18.75" fill="rgb(9,42,72)"/></clipPath><g clip-path="url(#_clipPath_a2PvF21PoZ4s8T9IrN8yHD0EZ7rc0JQv)"><circle vector-effect="non-scaling-stroke" cx="330.5312500000001" cy="163.65625000000003" r="6.09375" fill="rgb(235,235,235)"/></g></g></g></svg>