<?xml version="1.0" encoding="UTF-8" standalone="no"?>
<!-- Generator: Gravit.io -->
<svg xmlns="http://www.w3.org/2000/svg" xmlns:xlink="http://www.w3.org/1999/xlink" style="isolation:isolate" viewBox="0 0 168 167" width="168pt" height="167pt"><g><mask id="_mask_TBCAsCpAJnOsNBOiyUaMEc4Lae7PI2BZ" x="-200%" y="-200%" width="400%" height="400%"><rect x="-200%" y="-200%" width="400%" height="400%" style="fill:white;"/><path d=" M 7.478 47.12 C 7.478 33.069 7.478 26.043 10.213 20.676 C 12.618 15.956 16.456 12.117 21.177 9.712 C 26.544 6.977 33.57 6.977 47.621 6.977 L 120.38 6.977 C 134.431 6.977 141.456 6.977 146.824 9.712 C 151.545 12.117 155.382 15.956 157.788 20.676 C 160.523 26.043 160.523 33.069 160.523 47.12 L 160.523 119.879 C 160.523 133.931 160.523 140.957 157.788 146.323 C 155.382 151.044 151.545 154.883 146.824 157.288 C 141.456 160.022 134.431 160.022 120.38 160.022 L 47.621 160.022 C 33.57 160.022 26.544 160.022 21.177 157.288 C 16.456 154.883 12.618 151.044 10.213 146.323 C 7.478 140.957 7.478 133.931 7.478 119.879 L 7.478 47.12 Z " fill="black" stroke="none"/></mask><path d=" M 7.478 47.12 C 7.478 33.069 7.478 26.043 10.213 20.676 C 12.618 15.956 16.456 12.117 21.177 9.712 C 26.544 6.977 33.57 6.977 47.621 6.977 L 120.38 6.977 C 134.431 6.977 141.456 6.977 146.824 9.712 C 151.545 12.117 155.382 15.956 157.788 20.676 C 160.523 26.043 160.523 33.069 160.523 47.12 L 160.523 119.879 C 160.523 133.931 160.523 140.957 157.788 146.323 C 155.382 151.044 151.545 154.883 146.824 157.288 C 141.456 160.022 134.431 160.022 120.38 160.022 L 47.621 160.022 C 33.57 160.022 26.544 160.022 21.177 157.288 C 16.456 154.883 12.618 151.044 10.213 146.323 C 7.478 140.957 7.478 133.931 7.478 119.879 L 7.478 47.12 Z " fill="rgb(0,0,0)"/><path d=" M 7.478 47.12 C 7.478 33.069 7.478 26.043 10.213 20.676 C 12.618 15.956 16.456 12.117 21.177 9.712 C 26.544 6.977 33.57 6.977 47.621 6.977 L 120.38 6.977 C 134.431 6.977 141.456 6.977 146.824 9.712 C 151.545 12.117 155.382 15.956 157.788 20.676 C 160.523 26.043 160.523 33.069 160.523 47.12 L 160.523 119.879 C 160.523 133.931 160.523 140.957 157.788 146.323 C 155.382 151.044 151.545 154.883 146.824 157.288 C 141.456 160.022 134.431 160.022 120.38 160.022 L 47.621 160.022 C 33.57 160.022 26.544 160.022 21.177 157.288 C 16.456 154.883 12.618 151.044 10.213 146.323 C 7.478 140.957 7.478 133.931 7.478 119.879 L 7.478 47.12 Z " fill="rgb(0,0,0)" mask="url(#_mask_TBCAsCpAJnOsNBOiyUaMEc4Lae7PI2BZ)" vector-effect="non-scaling-stroke" stroke-width="14" stroke="rgb(255,255,255)" stroke-linejoin="round" stroke-linecap="round" stroke-miterlimit="4"/><clipPath id="_clipPath_CTn9btTNklE5YVvkL1b9yL9KSOjmH244"><path d=" M 7.478 47.12 C 7.478 33.069 7.478 26.043 10.213 20.676 C 12.618 15.956 16.456 12.117 21.177 9.712 C 26.544 6.977 33.57 6.977 47.621 6.977 L 120.38 6.977 C 134.431 6.977 141.456 6.977 146.824 9.712 C 151.545 12.117 155.382 15.956 157.788 20.676 C 160.523 26.043 160.523 33.069 160.523 47.12 L 160.523 119.879 C 160.523 133.931 160.523 140.957 157.788 146.323 C 155.382 151.044 151.545 154.883 146.824 157.288 C 141.456 160.022 134.431 160.022 120.38 160.022 L 47.621 160.022 C 33.57 160.022 26.544 160.022 21.177 157.288 C 16.456 154.883 12.618 151.044 10.213 146.323 C 7.478 140.957 7.478 133.931 7.478 119.879 L 7.478 47.12 Z " fill="rgb(0,0,0)"/><path d=" M 7.478 47.12 C 7.478 33.069 7.478 26.043 10.213 20.676 C 12.618 15.956 16.456 12.117 21.177 9.712 C 26.544 6.977 33.57 6.977 47.621 6.977 L 120.38 6.977 C 134.431 6.977 141.456 6.977 146.824 9.712 C 151.545 12.117 155.382 15.956 157.788 20.676 C 160.523 26.043 160.523 33.069 160.523 47.12 L 160.523 119.879 C 160.523 133.931 160.523 140.957 157.788 146.323 C 155.382 151.044 151.545 154.883 146.824 157.288 C 141.456 160.022 134.431 160.022 120.38 160.022 L 47.621 160.022 C 33.57 160.022 26.544 160.022 21.177 157.288 C 16.456 154.883 12.618 151.044 10.213 146.323 C 7.478 140.957 7.478 133.931 7.478 119.879 L 7.478 47.12 Z " fill="rgb(0,0,0)" mask="url(#_mask_TBCAsCpAJnOsNBOiyUaMEc4Lae7PI2BZ)" vector-effect="non-scaling-stroke" stroke-width="14" stroke="rgb(255,255,255)" stroke-linejoin="round" stroke-linecap="round" stroke-miterlimit="4"/></clipPath><g clip-path="url(#_clipPath_CTn9btTNklE5YVvkL1b9yL9KSOjmH244)"><g><g><g><path d=" M 198.327 182.935 C 201.479 183.938 204.993 183.042 207.278 180.52 C 209.931 177.592 210.241 173.231 208.028 169.958 L 200.002 158.09 C 203.005 158.414 206.03 157.13 207.868 154.594 C 210.165 151.423 210.024 147.098 207.522 144.084 L 115.768 33.588 C 114.663 32.258 113.181 31.291 111.515 30.818 L 64.633 17.493 C 64.554 17.47 64.476 17.452 64.396 17.433 C 64.335 17.416 64.273 17.4 64.213 17.386 C 64.06 17.35 63.909 17.32 63.756 17.294 C 63.741 17.291 63.724 17.287 63.708 17.284 C 63.538 17.255 63.368 17.233 63.198 17.215 C 63.145 17.21 63.091 17.207 63.039 17.202 C 62.92 17.192 62.801 17.182 62.682 17.177 C 62.619 17.174 62.556 17.173 62.491 17.171 C 62.382 17.169 62.272 17.167 62.164 17.17 C 62.097 17.17 62.031 17.173 61.964 17.174 C 61.855 17.178 61.747 17.185 61.636 17.193 C 61.573 17.199 61.51 17.203 61.445 17.21 C 61.324 17.221 61.203 17.237 61.082 17.254 C 61.032 17.261 60.983 17.266 60.933 17.275 C 60.764 17.302 60.596 17.334 60.429 17.371 C 60.392 17.379 60.357 17.389 60.321 17.397 C 60.187 17.429 60.055 17.463 59.924 17.5 C 59.868 17.517 59.812 17.535 59.755 17.551 C 59.644 17.587 59.532 17.623 59.421 17.663 C 59.363 17.683 59.304 17.704 59.246 17.726 C 59.134 17.769 59.024 17.813 58.916 17.861 C 58.88 17.876 58.844 17.888 58.81 17.903 L 20.201 35.038 C 20.129 35.069 20.06 35.104 19.992 35.137 C 19.942 35.161 19.891 35.183 19.842 35.208 C 19.672 35.294 19.506 35.383 19.342 35.479 C 19.298 35.504 19.255 35.532 19.213 35.559 C 19.082 35.639 18.954 35.722 18.827 35.808 C 18.783 35.839 18.738 35.869 18.694 35.9 C 18.538 36.012 18.385 36.128 18.238 36.249 C 18.209 36.272 18.182 36.297 18.153 36.322 C 18.028 36.428 17.905 36.536 17.787 36.651 C 17.75 36.684 17.714 36.718 17.678 36.752 C 17.539 36.889 17.404 37.029 17.275 37.174 C 17.258 37.191 17.243 37.211 17.228 37.23 C 17.114 37.361 17.004 37.496 16.896 37.633 C 16.866 37.673 16.834 37.713 16.804 37.753 C 16.687 37.91 16.576 38.068 16.47 38.232 C 16.46 38.246 16.453 38.259 16.444 38.273 C 16.347 38.425 16.258 38.58 16.171 38.737 C 16.144 38.788 16.116 38.837 16.09 38.887 C 16.009 39.042 15.932 39.199 15.859 39.359 C 15.849 39.381 15.838 39.403 15.828 39.425 C 15.753 39.598 15.684 39.775 15.619 39.954 C 15.599 40.011 15.578 40.069 15.559 40.127 C 15.542 40.176 15.523 40.225 15.508 40.276 C 15.473 40.383 15.443 40.492 15.413 40.6 C 15.405 40.633 15.394 40.666 15.385 40.699 C 15.334 40.891 15.293 41.083 15.256 41.275 C 15.246 41.326 15.238 41.378 15.23 41.429 C 15.198 41.612 15.172 41.796 15.151 41.982 C 15.15 41.996 15.147 42.011 15.146 42.026 L 12.042 73.18 C 11.653 77.095 13.979 80.775 17.682 82.102 L 45.201 91.968 C 46.148 92.308 47.127 92.472 48.094 92.472 C 50.607 92.472 53.054 91.364 54.715 89.348 C 54.843 89.192 54.964 89.031 55.08 88.869 L 57.268 95.435 C 57.625 96.506 58.19 97.497 58.931 98.349 L 88.194 132.015 L 84.772 133.615 C 83.02 134.434 81.597 135.821 80.732 137.549 L 65.849 167.327 C 64.021 170.985 65.03 175.425 68.26 177.934 C 71.49 180.442 76.043 180.32 79.134 177.643 L 95.157 163.767 L 113.665 163.384 L 108.855 241.401 C 108.616 245.737 109.388 246.207 113.665 246.961 C 114.166 247.048 115.275 246.961 115.768 246.961 C 119.602 246.269 119.536 246.074 121.828 243.255 L 163.695 182.065 L 195.039 211.635 C 198.111 214.533 202.838 214.763 206.177 212.174 C 209.516 209.587 210.474 204.953 208.433 201.254 L 198.327 182.935 Z " fill="rgb(206,62,58)"/></g><g><path d=" M 23.678 42.877 L 48.096 83.895 L 20.576 74.03 L 23.678 42.877 Z " fill="rgb(51,53,53)"/><linearGradient id="_lgradient_1" x1="0" y1="0.24314131651676374" x2="1.000003449733077" y2="0.24314131651676374" gradientTransform="matrix(36.159,0,0,28.038,23.678,42.877)" gradientUnits="userSpaceOnUse"><stop offset="0%" stop-opacity="1" style="stop-color:rgb(101,110,111)"/><stop offset="100%" stop-opacity="1" style="stop-color:rgb(85,85,85)"/></linearGradient><path d=" M 23.678 42.877 L 59.838 52.393 L 58.135 70.915 L 40.369 70.915 L 23.678 42.877 Z " fill="url(#_lgradient_1)"/><path d=" M 23.678 42.877 L 62.289 25.742 L 59.838 52.393 L 23.678 42.877 Z " fill="rgb(211,211,211)"/><path d=" M 58.135 70.915 L 109.17 39.067 L 62.289 25.742 L 58.135 70.915 Z " fill="rgb(169,169,169)"/><path d=" M 65.403 92.723 L 109.17 39.067 L 118.366 127.511 L 65.403 92.723 Z " fill="rgb(169,169,169)"/><path d=" M 65.403 92.723 L 58.135 70.915 L 109.17 39.067 L 65.403 92.723 Z " fill="rgb(105,105,105)"/><path d=" M 109.17 39.067 L 118.366 127.511 L 160.864 132.778 L 109.17 39.067 Z " fill="rgb(88,90,90)"/><path d=" M 118.366 127.511 L 160.864 132.778 L 200.924 205.396 L 118.366 127.511 Z " fill="rgb(211,211,211)"/><path d=" M 109.17 39.067 L 200.924 174.761 L 176.832 161.723 L 109.17 39.067 Z " fill="rgb(169,169,169)"/><path d=" M 159.491 166.31 L 118.366 233.989 L 123.948 132.778 L 159.491 166.31 Z " fill="rgb(206,62,58)"/><path d=" M 118.366 127.511 L 113.693 148.281 L 122.736 154.619 L 123.948 132.778 L 118.366 127.511 Z " fill="rgb(169,169,169)"/><path d=" M 122.736 154.619 L 91.885 155.257 L 88.403 141.384 L 113.693 148.281 L 122.736 154.619 Z " fill="rgb(89,92,92)"/><path d=" M 88.403 141.384 L 102.124 134.972 L 113.693 148.281 L 88.403 141.384 Z " fill="rgb(51,53,53)"/><path d=" M 88.403 141.384 L 73.52 171.161 L 91.885 155.257 L 88.403 141.384 Z " fill="rgb(51,53,53)"/><path d=" M 118.366 127.511 L 65.403 92.723 L 113.693 148.281 L 118.366 127.511 Z " fill="rgb(211,211,211)"/><path d=" M 109.17 39.067 L 200.924 149.562 L 177.675 140.38 L 109.17 39.067 Z " fill="rgb(88,90,90)"/><path d=" M 50.832 42.198 L 45.379 40.117 L 49.908 36.436 L 50.832 42.198 Z " fill="rgb(51,53,53)"/></g></g></g></g><path d=" M 7.478 47.12 C 7.478 33.069 7.478 26.043 10.213 20.676 C 12.618 15.956 16.456 12.117 21.177 9.712 C 26.544 6.977 33.57 6.977 47.621 6.977 L 120.38 6.977 C 134.431 6.977 141.456 6.977 146.824 9.712 C 151.545 12.117 155.382 15.956 157.788 20.676 C 160.523 26.043 160.523 33.069 160.523 47.12 L 160.523 119.879 C 160.523 133.931 160.523 140.957 157.788 146.323 C 155.382 151.044 151.545 154.883 146.824 157.288 C 141.456 160.022 134.431 160.022 120.38 160.022 L 47.621 160.022 C 33.57 160.022 26.544 160.022 21.177 157.288 C 16.456 154.883 12.618 151.044 10.213 146.323 C 7.478 140.957 7.478 133.931 7.478 119.879 L 7.478 47.12 Z " fill="transparent" mask="url(#_mask_TBCAsCpAJnOsNBOiyUaMEc4Lae7PI2BZ)" vector-effect="non-scaling-stroke" stroke-width="14" stroke="rgb(255,255,255)" stroke-linejoin="round" stroke-linecap="round" stroke-miterlimit="4"/><path d=" M 7.478 47.12 C 7.478 33.069 7.478 26.043 10.213 20.676 C 12.618 15.956 16.456 12.117 21.177 9.712 C 26.544 6.977 33.57 6.977 47.621 6.977 L 120.38 6.977 C 134.431 6.977 141.456 6.977 146.824 9.712 C 151.545 12.117 155.382 15.956 157.788 20.676 C 160.523 26.043 160.523 33.069 160.523 47.12 L 160.523 119.879 C 160.523 133.931 160.523 140.957 157.788 146.323 C 155.382 151.044 151.545 154.883 146.824 157.288 C 141.456 160.022 134.431 160.022 120.38 160.022 L 47.621 160.022 C 33.57 160.022 26.544 160.022 21.177 157.288 C 16.456 154.883 12.618 151.044 10.213 146.323 C 7.478 140.957 7.478 133.931 7.478 119.879 L 7.478 47.12 Z  M 0.498 47.128 C 0.488 43.997 0.508 40.867 0.538 37.727 C 0.568 35.205 0.668 32.662 0.857 30.14 C 1.017 27.927 1.336 25.724 1.824 23.561 C 2.303 21.467 3.02 19.443 3.987 17.529 C 7.058 11.478 11.983 6.563 18.034 3.483 C 19.948 2.526 21.972 1.798 24.065 1.32 C 26.228 0.841 28.422 0.512 30.635 0.362 C 33.167 0.173 35.699 0.063 38.241 0.043 C 41.372 0.004 44.502 -0.006 47.632 0.004 L 120.367 0.004 C 123.497 -0.006 126.627 0.004 129.758 0.043 C 132.3 0.063 134.832 0.173 137.364 0.362 C 139.577 0.512 141.771 0.841 143.934 1.32 C 146.027 1.798 148.051 2.526 149.965 3.483 C 156.016 6.563 160.941 11.478 164.022 17.529 C 164.979 19.443 165.706 21.467 166.175 23.561 C 166.663 25.724 166.982 27.927 167.142 30.14 C 167.331 32.662 167.431 35.205 167.461 37.737 C 167.501 40.867 167.511 43.997 167.501 47.128 L 167.501 119.872 C 167.511 123.003 167.501 126.133 167.461 129.263 C 167.431 131.795 167.331 134.338 167.142 136.86 C 166.982 139.073 166.663 141.276 166.175 143.439 C 165.706 145.523 164.979 147.557 164.022 149.471 C 160.941 155.522 156.016 160.437 149.965 163.517 C 148.051 164.474 146.027 165.202 143.934 165.68 C 141.771 166.159 139.577 166.488 137.364 166.638 C 134.832 166.827 132.3 166.937 129.758 166.957 C 126.627 166.996 123.497 167.006 120.367 166.996 L 47.632 166.996 C 44.502 167.006 41.372 166.996 38.241 166.957 C 35.699 166.937 33.167 166.827 30.635 166.638 C 28.422 166.488 26.228 166.159 24.065 165.68 C 21.972 165.202 19.948 164.474 18.034 163.517 C 11.983 160.437 7.058 155.522 3.987 149.471 C 3.02 147.557 2.303 145.523 1.824 143.439 C 1.336 141.276 1.017 139.073 0.857 136.86 C 0.668 134.338 0.568 131.795 0.538 129.263 C 0.508 126.133 0.488 123.003 0.498 119.872 L 0.498 47.128 Z " fill-rule="evenodd" fill="rgb(206,62,58)"/></g></svg>