<?xml version="1.0" encoding="UTF-8" standalone="no"?>
<!-- Generator: Gravit.io -->
<svg xmlns="http://www.w3.org/2000/svg" xmlns:xlink="http://www.w3.org/1999/xlink" style="isolation:isolate" viewBox="0 0 1024 1024" width="1024pt" height="1024pt"><g><g><g><g opacity="0.68"><path d=" M 902.195 738.564 C 916.235 743.03 931.896 739.038 942.076 727.8 C 953.896 714.755 955.273 695.325 945.413 680.743 L 909.657 627.865 C 923.037 629.31 936.514 623.593 944.703 612.291 C 954.941 598.161 954.304 578.89 943.158 565.464 L 534.358 73.158 C 529.433 67.225 522.826 62.922 515.409 60.815 L 306.528 1.444 C 306.177 1.344 305.824 1.265 305.471 1.175 C 305.199 1.105 304.926 1.03 304.653 0.966 C 303.977 0.811 303.301 0.674 302.623 0.558 C 302.55 0.545 302.478 0.527 302.405 0.515 C 301.649 0.388 300.891 0.288 300.134 0.208 C 299.898 0.183 299.66 0.169 299.424 0.148 C 298.896 0.102 298.367 0.06 297.838 0.037 C 297.554 0.024 297.271 0.019 296.986 0.012 C 296.498 0.001 296.012 -0.004 295.524 0.003 C 295.228 0.008 294.934 0.016 294.638 0.027 C 294.15 0.045 293.665 0.076 293.179 0.113 C 292.894 0.135 292.611 0.153 292.327 0.181 C 291.785 0.234 291.246 0.305 290.707 0.381 C 290.486 0.413 290.264 0.435 290.043 0.472 C 289.29 0.593 288.54 0.734 287.796 0.9 C 287.634 0.936 287.474 0.982 287.313 1.02 C 286.721 1.159 286.133 1.309 285.548 1.476 C 285.297 1.548 285.047 1.63 284.797 1.707 C 284.296 1.861 283.8 2.024 283.306 2.199 C 283.045 2.292 282.786 2.388 282.526 2.485 C 282.03 2.672 281.54 2.873 281.052 3.082 C 280.897 3.149 280.737 3.205 280.581 3.273 L 108.56 79.615 C 108.244 79.755 107.94 79.909 107.63 80.058 C 107.408 80.163 107.183 80.265 106.962 80.376 C 106.206 80.754 105.464 81.155 104.739 81.581 C 104.543 81.696 104.352 81.818 104.159 81.938 C 103.576 82.293 103.005 82.664 102.443 83.049 C 102.245 83.185 102.045 83.319 101.85 83.459 C 101.155 83.955 100.477 84.471 99.82 85.01 C 99.691 85.115 99.567 85.228 99.441 85.335 C 98.881 85.807 98.336 86.295 97.806 86.798 C 97.644 86.949 97.483 87.101 97.325 87.255 C 96.707 87.862 96.104 88.485 95.527 89.132 C 95.455 89.213 95.388 89.299 95.316 89.379 C 94.806 89.963 94.315 90.563 93.84 91.177 C 93.703 91.356 93.564 91.534 93.429 91.715 C 92.911 92.41 92.409 93.117 91.938 93.848 C 91.899 93.909 91.865 93.971 91.826 94.031 C 91.396 94.705 90.993 95.397 90.607 96.098 C 90.485 96.321 90.364 96.543 90.247 96.767 C 89.886 97.456 89.54 98.155 89.219 98.868 C 89.175 98.966 89.125 99.062 89.082 99.162 C 88.743 99.933 88.437 100.721 88.149 101.517 C 88.056 101.774 87.969 102.031 87.88 102.29 C 87.805 102.511 87.721 102.727 87.65 102.951 C 87.498 103.43 87.366 103.914 87.232 104.397 C 87.192 104.546 87.143 104.692 87.104 104.842 C 86.882 105.692 86.697 106.548 86.533 107.405 C 86.49 107.632 86.451 107.861 86.413 108.089 C 86.272 108.909 86.154 109.729 86.067 110.552 C 86.06 110.619 86.046 110.684 86.039 110.751 L 72.216 249.556 C 70.479 267.003 80.838 283.394 97.343 289.31 L 219.953 333.265 C 224.173 334.778 228.527 335.509 232.84 335.509 C 244.039 335.509 254.938 330.575 262.34 321.591 C 262.912 320.896 263.447 320.18 263.964 319.456 L 273.715 348.71 C 275.306 353.483 277.825 357.895 281.124 361.692 L 411.5 511.696 L 396.257 518.821 C 388.453 522.469 382.109 528.647 378.257 536.352 L 311.947 669.019 C 303.801 685.32 308.297 705.103 322.688 716.28 C 337.078 727.454 357.361 726.914 371.137 714.985 L 442.528 653.159 L 524.986 651.454 L 503.558 999.056 C 502.489 1018.374 505.931 1020.47 524.986 1023.826 C 527.216 1024.218 532.161 1023.826 534.358 1023.826 C 551.437 1020.746 551.147 1019.875 561.355 1007.313 L 747.892 734.685 L 887.543 866.431 C 901.233 879.346 922.292 880.37 937.169 868.838 C 952.045 857.309 956.309 836.663 947.218 820.182 L 902.195 738.564 Z " fill="rgb(255,255,255)"/></g><g><path d=" M 124.06 114.54 L 232.847 297.299 L 110.237 253.344 L 124.06 114.54 Z " fill="rgb(51,53,53)"/><linearGradient id="_lgradient_0" x1="0" y1="0.24314131651676352" x2="1.000003449733077" y2="0.24314131651676352" gradientTransform="matrix(161.102,0,0,124.924,124.06,114.54)" gradientUnits="userSpaceOnUse"><stop offset="0%" stop-opacity="1" style="stop-color:rgb(101,110,111)"/><stop offset="100%" stop-opacity="1" style="stop-color:rgb(85,85,85)"/></linearGradient><path d=" M 124.06 114.54 L 285.162 156.939 L 277.575 239.464 L 198.42 239.464 L 124.06 114.54 Z " fill="url(#_lgradient_0)"/><path d=" M 124.06 114.54 L 296.081 38.198 L 285.162 156.939 L 124.06 114.54 Z " fill="rgb(211,211,211)"/><path d=" M 277.575 239.464 L 504.962 97.568 L 296.081 38.198 L 277.575 239.464 Z " fill="rgb(169,169,169)"/><path d=" M 309.961 336.627 L 504.962 97.568 L 545.93 491.626 L 309.961 336.627 Z " fill="rgb(169,169,169)"/><path d=" M 309.961 336.627 L 277.575 239.464 L 504.962 97.568 L 309.961 336.627 Z " fill="rgb(105,105,105)"/><path d=" M 504.962 97.568 L 545.93 491.626 L 735.283 515.092 L 504.962 97.568 Z " fill="rgb(88,90,90)"/><path d=" M 545.93 491.626 L 735.283 515.092 L 913.763 838.637 L 545.93 491.626 Z " fill="rgb(211,211,211)"/><path d=" M 504.962 97.568 L 913.763 702.147 L 806.423 644.053 L 504.962 97.568 Z " fill="rgb(169,169,169)"/><path d=" M 729.164 664.49 L 545.93 966.029 L 570.803 515.092 L 729.164 664.49 Z " fill="rgb(206,62,58)"/><path d=" M 545.93 491.626 L 525.109 584.163 L 565.4 612.401 L 570.803 515.092 L 545.93 491.626 Z " fill="rgb(169,169,169)"/><path d=" M 565.4 612.401 L 427.945 615.245 L 412.435 553.435 L 525.109 584.163 L 565.4 612.401 Z " fill="rgb(89,92,92)"/><path d=" M 412.435 553.435 L 473.568 524.862 L 525.109 584.163 L 412.435 553.435 Z " fill="rgb(51,53,53)"/><path d=" M 412.435 553.435 L 346.123 686.103 L 427.945 615.245 L 412.435 553.435 Z " fill="rgb(51,53,53)"/><path d=" M 545.93 491.626 L 309.961 336.627 L 525.109 584.163 L 545.93 491.626 Z " fill="rgb(211,211,211)"/><path d=" M 504.962 97.568 L 913.763 589.873 L 810.183 548.962 L 504.962 97.568 Z " fill="rgb(88,90,90)"/></g></g></g><polygon points="245.037,111.52,220.743,102.247,240.92,85.844" fill="rgb(51,53,53)"/></g></svg>